<svg width="180" height="57" viewBox="0 0 180 57" fill="none" xmlns="http://www.w3.org/2000/svg">
<g clip-path="url(#clip0)">
<path d="M149.122 56.242L147.561 50.1326H148.395L149.122 53.223C149.305 53.9856 149.465 54.7437 149.568 55.3368C149.666 54.7258 149.858 53.9989 150.068 53.2141L150.879 50.1326H151.704L152.449 53.2319C152.623 53.9588 152.783 54.6812 152.895 55.3278C153.02 54.6545 153.194 53.99 153.381 53.2141L154.188 50.1326H154.995L153.265 56.242H152.467L151.695 53.058C151.527 52.4013 151.394 51.7358 151.298 51.0647C151.176 51.737 151.018 52.4023 150.826 53.058L149.956 56.242H149.122Z" fill="#EA1B3C"/>
<path d="M163.731 53.1249C163.731 55.2252 162.456 56.3401 160.895 56.3401C159.334 56.3401 158.152 55.0915 158.152 53.2408C158.152 51.301 159.356 50.0345 160.989 50.0345C162.621 50.0345 163.731 51.3099 163.731 53.1249ZM158.991 53.223C158.991 54.5296 159.7 55.6979 160.94 55.6979C162.179 55.6979 162.897 54.5474 162.897 53.1605C162.897 51.9431 162.264 50.6766 160.953 50.6766C159.642 50.6766 158.991 51.8807 158.991 53.223Z" fill="#EA1B3C"/>
<path d="M168.476 56.242L166.924 50.1326H167.758L168.485 53.223C168.663 53.9856 168.828 54.7437 168.931 55.3368C169.033 54.7258 169.221 53.9989 169.43 53.2141L170.246 50.1326H171.071L171.816 53.2319C171.985 53.9588 172.15 54.6812 172.24 55.3278C172.369 54.6545 172.538 53.99 172.73 53.2141L173.537 50.1326H174.344L172.614 56.242H171.789L171.018 53.058C170.848 52.4013 170.714 51.7359 170.616 51.0647C170.498 51.7374 170.342 52.4029 170.148 53.058L169.279 56.242H168.476Z" fill="#EA1B3C"/>
<path d="M177.685 55.7782C177.68 55.7056 177.691 55.6328 177.716 55.5645C177.741 55.4962 177.78 55.4337 177.83 55.381C177.88 55.3283 177.941 55.2865 178.008 55.2582C178.075 55.2299 178.147 55.2156 178.22 55.2164C178.369 55.2164 178.512 55.2756 178.617 55.3809C178.722 55.4863 178.782 55.6292 178.782 55.7782C178.782 55.9273 178.722 56.0702 178.617 56.1756C178.512 56.2809 178.369 56.3401 178.22 56.3401C178.147 56.3409 178.075 56.3266 178.008 56.2983C177.941 56.27 177.88 56.2282 177.83 56.1755C177.78 56.1228 177.741 56.0603 177.716 55.992C177.691 55.9236 177.68 55.8509 177.685 55.7782ZM177.912 54.485L177.783 50.1326H178.675L178.55 54.485H177.912Z" fill="#EA1B3C"/>
<path d="M44.0543 28.0407C44.3085 27.898 45.6552 27.0329 46.9574 26.3016C47.1227 26.2211 47.304 26.1789 47.4879 26.1783C47.6717 26.1776 47.8534 26.2184 48.0193 26.2977C48.1852 26.377 48.331 26.4928 48.446 26.6363C48.5609 26.7798 48.642 26.9474 48.6832 27.1266C50.3777 32.2058 55.9564 32.625 58.9398 29.8022L57.4637 28.9103C56.5049 28.344 56.5183 27.4476 57.4994 26.917L64.679 23.0195C65.6556 22.4888 66.4628 22.9615 66.4628 24.0763V32.1924C66.4628 33.3073 65.6868 33.7532 64.7236 33.1913L63.1807 32.2682C59.8673 37.9138 48.9106 39.3453 43.6262 30.3462C43.6574 30.3552 42.5559 28.8836 44.0543 28.0407Z" fill="#EA1B3C"/>
<path d="M88.0641 56.0414C87.5543 56.2516 87.0054 56.3504 86.4543 56.3312C84.7285 56.3312 83.4353 55.2431 83.4353 53.2409C83.4109 52.8149 83.4766 52.3887 83.6279 51.9898C83.7793 51.591 84.013 51.2285 84.3138 50.926C84.6146 50.6235 84.9758 50.3878 85.3738 50.2342C85.7718 50.0806 86.1977 50.0126 86.6238 50.0346C87.1214 50.0117 87.6176 50.1049 88.0731 50.3066L87.8858 50.9487C87.4982 50.7728 87.0761 50.686 86.6505 50.6946C85.2191 50.6946 84.2692 51.6087 84.2692 53.2141C84.2692 54.708 85.1299 55.6712 86.6148 55.6712C87.0574 55.6766 87.4962 55.5901 87.9036 55.4171L88.0641 56.0414Z" fill="white"/>
<path d="M91.7744 50.2129C92.2734 50.1253 92.7794 50.0835 93.2861 50.088C93.9228 50.0192 94.5615 50.1981 95.0699 50.5875C95.2277 50.7354 95.352 50.9154 95.4343 51.1154C95.5166 51.3154 95.5551 51.5308 95.547 51.7469C95.5514 52.0964 95.4413 52.4376 95.2336 52.7187C95.0258 52.9997 94.7319 53.205 94.3965 53.3033V53.33C94.6404 53.4397 94.8512 53.6115 95.0077 53.8283C95.1643 54.0451 95.2611 54.2993 95.2884 54.5653C95.397 55.1368 95.5552 55.6979 95.7611 56.242H94.9405C94.7594 55.7699 94.6235 55.2816 94.5347 54.7838C94.3519 53.941 94.0264 53.6199 93.3084 53.5931H92.5681V56.242H91.7744V50.2129ZM92.5637 52.9956H93.3664C94.2137 52.9956 94.7443 52.5496 94.7443 51.8361C94.7443 51.0468 94.1735 50.7034 93.3396 50.6945C93.0791 50.6872 92.8185 50.7111 92.5637 50.7659V52.9956Z" fill="white"/>
<path d="M102.522 53.3791H100.158V55.5776H102.802V56.2421H99.3687V50.1327H102.669V50.7927H100.158V52.7236H102.522V53.3791Z" fill="white"/>
<path d="M107.534 54.329L106.901 56.251H106.089L108.167 50.1416H109.117L111.204 56.251H110.361L109.701 54.329H107.534ZM109.541 53.7136L108.939 51.9521C108.805 51.5552 108.716 51.194 108.622 50.8373C108.533 51.2029 108.435 51.5731 108.314 51.9432L107.717 53.727L109.541 53.7136Z" fill="white"/>
<path d="M115.275 50.8016H113.42V50.1327H117.942V50.8016H116.074V56.2421H115.275V50.8016Z" fill="white"/>
<path d="M122.143 50.1327V56.2421H121.34V50.1327H122.143Z" fill="white"/>
<path d="M126.228 56.2421V50.1327H127.088L129.046 53.2231C129.453 53.8608 129.819 54.5236 130.143 55.2075C130.072 54.3914 130.049 53.6512 130.049 52.6968V50.1416H130.794V56.251H129.996L128.056 53.1517C127.635 52.4941 127.254 51.8121 126.914 51.1093H126.888C126.932 51.8808 126.95 52.6166 126.95 53.6289V56.2421H126.228Z" fill="white"/>
<path d="M139.561 55.9699C138.958 56.1843 138.324 56.2973 137.684 56.3044C137.268 56.3427 136.848 56.2897 136.455 56.149C136.062 56.0082 135.704 55.7833 135.406 55.4897C135.109 55.1962 134.879 54.8413 134.734 54.4497C134.588 54.0582 134.529 53.6395 134.562 53.223C134.562 51.3991 135.82 50.0702 137.867 50.0702C138.389 50.0563 138.909 50.152 139.392 50.3511L139.2 50.9933C138.778 50.8101 138.322 50.7204 137.862 50.7302C137.533 50.7046 137.203 50.7507 136.893 50.8652C136.584 50.9798 136.303 51.16 136.07 51.3935C135.837 51.6271 135.657 51.9083 135.543 52.218C135.429 52.5277 135.383 52.8584 135.41 53.1873C135.41 54.7347 136.342 55.6533 137.764 55.6533C138.123 55.6716 138.481 55.6154 138.817 55.4883V53.6689H137.572V53.0312H139.588L139.561 55.9699Z" fill="white"/>
<path d="M4.78493 2.79174H0.316617C0.141754 2.79174 0 2.9335 0 3.10836V36.0677C0 36.2426 0.141754 36.3844 0.316617 36.3844H4.78493C4.95979 36.3844 5.10155 36.2426 5.10155 36.0677V3.10836C5.10155 2.9335 4.95979 2.79174 4.78493 2.79174Z" fill="white"/>
<path d="M25.9671 15.22C25.2001 14.5051 24.2873 13.965 23.2914 13.637C22.2744 13.3007 21.2098 13.1306 20.1386 13.1331C18.5107 13.1014 16.9022 13.4917 15.4697 14.2657C14.5276 14.77 13.7166 15.4878 13.1017 16.3617V14.0071C13.1017 13.9231 13.0684 13.8426 13.009 13.7832C12.9496 13.7238 12.8691 13.6905 12.7851 13.6905H8.59327C8.5519 13.6905 8.51094 13.6987 8.47277 13.7147C8.4346 13.7306 8.39999 13.754 8.37095 13.7835C8.3419 13.8129 8.319 13.8479 8.30358 13.8863C8.28816 13.9247 8.28052 13.9657 8.28111 14.0071V36.0722C8.28052 36.1135 8.28816 36.1546 8.30358 36.193C8.319 36.2314 8.3419 36.2663 8.37095 36.2958C8.39999 36.3253 8.4346 36.3487 8.47277 36.3646C8.51094 36.3806 8.5519 36.3888 8.59327 36.3888H12.7851C12.8691 36.3888 12.9496 36.3554 13.009 36.2961C13.0684 36.2367 13.1017 36.1562 13.1017 36.0722V24.7141C13.0785 23.6284 13.229 22.546 13.5477 21.5078C13.7978 20.6979 14.2191 19.9512 14.7829 19.3182C15.2862 18.7637 15.9145 18.3371 16.6157 18.0741C17.9293 17.5803 19.3701 17.5395 20.7094 17.9581C21.2664 18.1403 21.7753 18.4451 22.1989 18.85C22.6614 19.3202 23.0173 19.8845 23.2424 20.5044C23.5249 21.3136 23.6594 22.1671 23.6393 23.024V36.0722C23.6393 36.1562 23.6726 36.2367 23.732 36.2961C23.7914 36.3554 23.8719 36.3888 23.9559 36.3888H28.1433C28.2272 36.3888 28.3078 36.3554 28.3671 36.2961C28.4265 36.2367 28.4599 36.1562 28.4599 36.0722V21.8735C28.4873 20.5388 28.2588 19.2112 27.7865 17.9626C27.3865 16.9271 26.7656 15.9912 25.9671 15.22Z" fill="white"/>
<path d="M44.5092 15.8131C45.0973 15.1805 45.7323 14.5931 46.4089 14.0561C46.6141 13.9045 46.3331 13.6905 46.1592 13.6905H38.333V8.9323C38.3287 8.2527 38.3674 7.57352 38.4489 6.89881C38.5027 6.39266 38.6622 5.90346 38.9172 5.46289C39.1476 5.08061 39.4815 4.77138 39.8804 4.57101C40.4231 4.33738 41.0114 4.22916 41.6017 4.25439C41.99 4.25301 42.3777 4.28284 42.7612 4.34358C43.1376 4.41165 43.5065 4.5162 43.8626 4.65574C43.9077 4.67259 43.956 4.67894 44.004 4.6743C44.0519 4.66966 44.0981 4.65416 44.1391 4.62898C44.1805 4.60461 44.2158 4.571 44.2421 4.53078C44.2684 4.49056 44.285 4.44481 44.2907 4.39709L44.7367 0.673499C44.7477 0.597666 44.7301 0.520439 44.6872 0.456931C44.6443 0.393423 44.5792 0.348205 44.5048 0.330125C43.945 0.177008 43.3714 0.0799111 42.7924 0.0402646C42.2662 0.00904879 41.7667 -0.00878906 41.3074 -0.00878906C38.4534 -0.00878906 36.4021 0.762687 35.2159 2.27888C34.0297 3.79508 33.4321 6.05599 33.4321 9.06162V13.6905H29.0351C28.9512 13.6905 28.8706 13.7238 28.8113 13.7832C28.7519 13.8426 28.7185 13.9231 28.7185 14.0071V17.637C28.7185 17.721 28.7519 17.8015 28.8113 17.8609C28.8706 17.9203 28.9512 17.9537 29.0351 17.9537H33.4678V36.0722C33.4672 36.1135 33.4748 36.1546 33.4902 36.193C33.5057 36.2314 33.5286 36.2663 33.5576 36.2958C33.5867 36.3253 33.6213 36.3486 33.6594 36.3646C33.6976 36.3806 33.7386 36.3888 33.7799 36.3888H37.9718C38.0557 36.3888 38.1363 36.3554 38.1956 36.2961C38.255 36.2367 38.2884 36.1561 38.2884 36.0722V17.9537H42.6541C42.8637 17.9537 42.9707 17.9537 43.1001 17.753C43.5247 17.0748 43.9956 16.4267 44.5092 15.8131Z" fill="white"/>
<path d="M90.2715 21.0351C89.6092 20.2808 88.8122 19.6562 87.9214 19.1934C87.3336 18.892 86.7082 18.67 86.0619 18.5334C87.3044 18.0014 88.4144 17.202 89.3128 16.1922C90.4531 14.8443 91.0467 13.1179 90.9761 11.3538C91.0048 10.0443 90.7316 8.7458 90.1779 7.55882C89.6669 6.50824 88.9171 5.59191 87.9883 4.88318C87.0044 4.16192 85.8943 3.63105 84.7151 3.31793C83.3966 2.96266 82.036 2.78716 80.6705 2.79618H69.1964C69.1551 2.79618 69.1141 2.8044 69.0759 2.82036C69.0378 2.83633 69.0032 2.85972 68.9741 2.88918C68.9451 2.91864 68.9222 2.95358 68.9068 2.99197C68.8913 3.03036 68.8837 3.07143 68.8843 3.1128V36.0722C68.8837 36.1136 68.8913 36.1546 68.9068 36.193C68.9222 36.2314 68.9451 36.2664 68.9741 36.2958C69.0032 36.3253 69.0378 36.3487 69.0759 36.3646C69.1141 36.3806 69.1551 36.3888 69.1964 36.3888H80.5099C82.0712 36.4023 83.6266 36.1951 85.1299 35.7734C86.4861 35.3937 87.7647 34.7778 88.907 33.954C89.9794 33.1701 90.8618 32.155 91.489 30.984C92.1356 29.7226 92.4604 28.3209 92.4344 26.9037C92.4528 24.7516 91.689 22.6661 90.2849 21.0351H90.2715ZM85.1299 13.9982C84.8387 14.5648 84.4168 15.0539 83.8991 15.4252C83.3463 15.8175 82.7198 16.0936 82.0573 16.2368C81.3001 16.4026 80.527 16.4849 79.7518 16.4821H73.9814V7.34031H80.6928C82.3918 7.34031 83.6404 7.78625 84.4119 8.67813C85.1896 9.55644 85.611 10.6936 85.5936 11.8666C85.6148 12.6043 85.4556 13.336 85.1299 13.9982ZM73.9814 21.0262H80.2736C82.365 21.0262 84.0373 21.4989 85.2503 22.4264C86.4632 23.354 87.034 24.7052 87.034 26.5781C87.0839 27.5192 86.8442 28.453 86.3473 29.2538C85.8999 29.9086 85.3137 30.4567 84.6304 30.8592C83.9529 31.259 83.2077 31.5311 82.4319 31.6619C81.7044 31.7902 80.9677 31.8588 80.229 31.867H73.9814V21.0262Z" fill="white"/>
<path d="M113.768 16.9548C112.84 15.7929 111.668 14.8491 110.334 14.1899C108.74 13.4433 106.993 13.0813 105.233 13.133C103.626 13.1122 102.032 13.4155 100.546 14.0249C99.1535 14.6047 97.8918 15.4585 96.8358 16.5356C95.786 17.6266 94.9576 18.9108 94.3965 20.3171C93.7957 21.8123 93.4928 23.4105 93.5046 25.0218C93.4932 26.6229 93.7681 28.2132 94.3162 29.7175C94.8299 31.1221 95.6199 32.4095 96.6396 33.5036C97.6804 34.6023 98.9417 35.4686 100.341 36.0454C101.885 36.6617 103.535 36.9649 105.197 36.9373C109.469 36.9373 112.841 35.3765 115.222 32.2995C115.248 32.2674 115.267 32.2302 115.278 32.1902C115.289 32.1503 115.291 32.1085 115.284 32.0676C115.28 32.0262 115.267 31.9862 115.246 31.9501C115.226 31.914 115.197 31.8827 115.164 31.8581L111.998 29.4366C111.965 29.4105 111.928 29.391 111.888 29.3793C111.848 29.3676 111.806 29.364 111.765 29.3685C111.723 29.3731 111.683 29.3858 111.647 29.4059C111.61 29.426 111.578 29.4531 111.552 29.4857C110.827 30.3998 109.956 31.1879 108.974 31.8179C108.002 32.4056 106.882 32.7027 105.746 32.6741C104.835 32.6746 103.931 32.5239 103.07 32.2282C102.244 31.9494 101.474 31.5266 100.796 30.9795C100.147 30.4482 99.6112 29.7915 99.2216 29.0486C98.8695 28.3781 98.67 27.638 98.6374 26.8814H115.989C116.072 26.8814 116.151 26.8485 116.21 26.7899C116.268 26.7314 116.301 26.652 116.301 26.5692V25.0842C116.302 23.6308 116.102 22.1843 115.708 20.7854C115.322 19.3923 114.663 18.09 113.768 16.9548ZM105.139 17.1153C106.043 17.0909 106.942 17.2423 107.788 17.5612C108.498 17.8491 109.135 18.289 109.657 18.85C110.158 19.4035 110.539 20.0549 110.776 20.7631C111.007 21.4568 111.145 22.1781 111.186 22.908H98.624C98.6681 22.2806 98.8189 21.6653 99.0699 21.0886C99.3876 20.3532 99.833 19.6798 100.385 19.0997C100.977 18.4904 101.679 18 102.455 17.6549C103.301 17.2854 104.216 17.1014 105.139 17.1153Z" fill="white"/>
<path d="M137.068 32.0676V20.8032C137.07 19.8131 136.881 18.8319 136.511 17.9135C136.124 16.9725 135.531 16.13 134.776 15.4474C133.91 14.6861 132.898 14.1095 131.802 13.7529C130.423 13.3137 128.981 13.1043 127.534 13.133C125.911 13.1395 124.301 13.4199 122.772 13.9625C121.216 14.5044 119.788 15.3588 118.575 16.4731C118.546 16.5022 118.522 16.5369 118.506 16.5751C118.49 16.6134 118.482 16.6545 118.482 16.6961C118.482 16.7376 118.49 16.7787 118.506 16.817C118.522 16.8553 118.546 16.89 118.575 16.919L121.068 19.5456C121.121 19.6018 121.193 19.6361 121.269 19.6419C121.346 19.6477 121.422 19.6245 121.483 19.5768C121.857 19.3004 122.245 19.0016 122.651 18.685C123.052 18.3781 123.486 18.1164 123.944 17.9046C124.458 17.6684 124.993 17.4803 125.541 17.3427C126.208 17.1847 126.893 17.1098 127.579 17.1197C128.339 17.1002 129.096 17.2259 129.809 17.4898C130.378 17.7156 130.896 18.0555 131.329 18.4888C131.716 18.8953 132.019 19.3741 132.221 19.8979C132.418 20.395 132.52 20.9242 132.524 21.4587V22.0741H129.768C128.166 22.0663 126.566 22.2006 124.988 22.4755C123.604 22.7024 122.266 23.1543 121.028 23.8133C119.934 24.3962 119 25.2383 118.308 26.2659C117.717 27.2836 117.375 28.4267 117.311 29.6017C117.247 30.7767 117.461 31.9503 117.938 33.0264C118.349 33.873 118.943 34.6178 119.677 35.207C120.436 35.8024 121.302 36.2474 122.228 36.5181C123.214 36.8069 124.237 36.9481 125.264 36.9373C126.83 36.9718 128.385 36.6676 129.822 36.0454C130.993 35.4754 132.008 34.629 132.779 33.5793C132.779 34.4222 132.841 35.2695 132.912 36.1078C132.919 36.1871 132.955 36.2609 133.014 36.3146C133.073 36.3683 133.149 36.398 133.229 36.3977H136.953C136.996 36.3983 137.04 36.3895 137.08 36.3718C137.12 36.3541 137.155 36.3279 137.184 36.2951C137.215 36.2623 137.237 36.2235 137.251 36.1812C137.265 36.1389 137.27 36.0941 137.265 36.0499C137.202 35.4701 137.158 34.8503 137.126 34.2037C137.095 33.5571 137.068 32.8391 137.068 32.0676ZM132.524 25.7888V26.868C132.52 27.6027 132.415 28.3335 132.212 29.0397C132.007 29.7547 131.661 30.4217 131.195 31.0018C130.696 31.6097 130.067 32.0974 129.354 32.4288C128.473 32.8154 127.519 33.0027 126.558 32.9773C125.406 33.0386 124.262 32.766 123.262 32.1925C122.495 31.6886 122.125 30.8547 122.125 29.7086C122.11 29.3562 122.167 29.0044 122.291 28.6742C122.415 28.344 122.604 28.0422 122.847 27.7866C123.403 27.2304 124.077 26.8066 124.818 26.5469C125.712 26.2336 126.641 26.0285 127.583 25.9359C128.591 25.8344 129.603 25.7853 130.616 25.7888H132.524Z" fill="white"/>
<path d="M157.261 15.2201C156.495 14.5033 155.582 13.9629 154.585 13.637C153.569 13.3008 152.506 13.1306 151.437 13.1331C149.809 13.1014 148.2 13.4917 146.768 14.2657C145.825 14.7712 145.013 15.4887 144.395 16.3617V14.0071C144.396 13.9657 144.388 13.9247 144.373 13.8863C144.357 13.8479 144.334 13.8129 144.305 13.7835C144.276 13.754 144.242 13.7306 144.204 13.7147C144.165 13.6987 144.124 13.6905 144.083 13.6905H139.891C139.807 13.6905 139.727 13.7238 139.667 13.7832C139.608 13.8426 139.575 13.9231 139.575 14.0071V36.0722C139.575 36.1562 139.608 36.2367 139.667 36.2961C139.727 36.3554 139.807 36.3888 139.891 36.3888H144.083C144.124 36.3888 144.165 36.3806 144.204 36.3646C144.242 36.3487 144.276 36.3253 144.305 36.2958C144.334 36.2663 144.357 36.2314 144.373 36.193C144.388 36.1546 144.396 36.1135 144.395 36.0722V24.7141C144.372 23.6284 144.523 22.546 144.841 21.5078C145.093 20.6987 145.514 19.9524 146.076 19.3182C146.581 18.7635 147.211 18.337 147.914 18.0741C149.227 17.5803 150.668 17.5395 152.007 17.9581C152.563 18.1405 153.07 18.4453 153.492 18.85C153.956 19.3191 154.312 19.8837 154.536 20.5044C154.818 21.3136 154.953 22.1671 154.933 23.024V36.0722C154.933 36.1562 154.966 36.2367 155.026 36.2961C155.085 36.3554 155.165 36.3888 155.249 36.3888H159.441C159.525 36.3888 159.606 36.3554 159.665 36.2961C159.725 36.2367 159.758 36.1562 159.758 36.0722V21.8735C159.786 20.5383 159.556 19.2103 159.08 17.9626C158.682 16.9262 158.061 15.99 157.261 15.2201Z" fill="white"/>
<path d="M178.844 26.9572C178.513 26.2198 178.024 25.5638 177.413 25.0352C176.777 24.4938 176.053 24.0655 175.272 23.7687C174.428 23.4402 173.562 23.1705 172.681 22.9616L171.004 22.636C170.392 22.5209 169.794 22.34 169.221 22.0964C168.706 21.8846 168.233 21.5826 167.825 21.2045C167.648 21.0306 167.51 20.8219 167.419 20.5915C167.327 20.3612 167.285 20.1144 167.294 19.8667C167.285 19.5437 167.368 19.2247 167.534 18.9474C167.7 18.67 167.942 18.4459 168.231 18.3015C168.973 17.8939 169.81 17.6907 170.657 17.7128C171.534 17.6837 172.403 17.8868 173.176 18.3015C173.847 18.6811 174.44 19.1833 174.924 19.782C174.95 19.8152 174.981 19.8431 175.018 19.864C175.054 19.885 175.094 19.8985 175.135 19.9039C175.177 19.9093 175.219 19.9064 175.259 19.8955C175.299 19.8845 175.337 19.8656 175.37 19.84L178.63 17.316C178.692 17.2681 178.735 17.1989 178.75 17.1216C178.765 17.0444 178.751 16.9643 178.71 16.8968C177.916 15.583 176.72 14.5602 175.299 13.9803C172.906 12.9998 170.255 12.8429 167.762 13.5344C166.756 13.812 165.806 14.2616 164.953 14.8633C164.126 15.4455 163.441 16.2079 162.951 17.093C162.428 18.0617 162.165 19.1496 162.188 20.2502C162.159 21.2177 162.363 22.178 162.781 23.0507C163.161 23.7867 163.702 24.4271 164.364 24.9237C165.043 25.4245 165.795 25.8171 166.594 26.0876C167.41 26.3685 168.284 26.6227 169.198 26.8457C169.644 26.9349 170.193 27.0508 170.795 27.1891C171.366 27.3205 171.924 27.5026 172.463 27.7331C172.949 27.9406 173.389 28.2439 173.756 28.625C173.926 28.8019 174.058 29.0121 174.143 29.2423C174.228 29.4725 174.265 29.7178 174.251 29.9628C174.26 30.3397 174.142 30.7088 173.916 31.0108C173.669 31.3384 173.354 31.6091 172.993 31.8045C172.575 32.0333 172.124 32.1958 171.656 32.2861C171.147 32.3882 170.631 32.4404 170.113 32.4422C169.081 32.47 168.064 32.199 167.183 31.6618C166.375 31.1527 165.627 30.5544 164.953 29.8781C164.895 29.8257 164.819 29.7968 164.741 29.7968C164.663 29.7968 164.588 29.8257 164.529 29.8781L161.386 32.4779C161.352 32.5032 161.324 32.535 161.303 32.5714C161.282 32.6077 161.269 32.6479 161.264 32.6895C161.259 32.7311 161.263 32.7733 161.274 32.8136C161.286 32.8538 161.306 32.8913 161.332 32.9238C162.285 34.3243 163.614 35.4266 165.167 36.1034C166.746 36.6944 168.423 36.9775 170.108 36.9373C171.22 36.9375 172.329 36.8104 173.413 36.5583C174.47 36.3218 175.476 35.8973 176.382 35.3052C177.257 34.7169 177.99 33.9416 178.527 33.0353C179.104 32.0153 179.392 30.8576 179.361 29.6863C179.385 28.7502 179.208 27.8198 178.844 26.9572Z" fill="white"/>
<path d="M47.8315 23.8579C48.0444 22.333 48.7741 20.9273 49.8987 19.8757C51.0234 18.8241 52.4749 18.1902 54.0106 18.0801C55.5464 17.9699 57.0735 18.3902 58.3367 19.2705C59.5999 20.1509 60.5227 21.438 60.951 22.917C60.9643 22.9608 60.9866 23.0013 61.0166 23.0359C61.0466 23.0704 61.0835 23.0983 61.125 23.1177C61.1657 23.1354 61.2098 23.1446 61.2543 23.1444C61.3008 23.1452 61.3467 23.1345 61.3881 23.1132L65.4015 21.1912C65.4721 21.1572 65.5275 21.0983 65.5572 21.0258C65.5868 20.9534 65.5886 20.8725 65.5621 20.7988C64.5803 18.0367 62.6031 15.7404 60.0174 14.3595C57.4317 12.9785 54.4237 12.6122 51.5822 13.3324C48.7407 14.0525 46.2702 15.8072 44.6544 18.253C43.0385 20.6988 42.3936 23.6596 42.8459 26.5559C42.8538 26.6074 42.8742 26.6561 42.9054 26.6978C42.9366 26.7395 42.9777 26.7729 43.0249 26.7949C43.0721 26.817 43.124 26.8271 43.176 26.8242C43.228 26.8214 43.2785 26.8058 43.3231 26.7788L47.6799 24.1032C47.7225 24.077 47.7584 24.0411 47.7848 23.9985C47.8111 23.9559 47.8271 23.9078 47.8315 23.8579Z" fill="white"/>
</g>
<defs>
<clipPath id="clip0">
<rect width="179.361" height="56.34" fill="white"/>
</clipPath>
</defs>
</svg>
